<?xml version="1.0" encoding="UTF-8"?>
<svg xmlns="http://www.w3.org/2000/svg" viewBox="0 0 24 24">
  <path d="M22.64,11.74c-.15.18-.36.27-.55.38-2.55,1.55-4.93,3.32-7.15,5.3-1.72,1.54-3.32,3.19-4.74,5.01-.25.32-.5.43-.89.41-.57-.03-1.15-.01-1.72,0-.14,0-.16-.02-.1-.15.84-1.78,1.67-3.56,2.5-5.34.72-1.54,1.43-3.08,2.15-4.61.22-.48.45-.96.68-1.43.27-.55.69-.88,1.32-.93.68-.05,1.22.21,1.55.8.29.52.52,1.07.78,1.62.26.55.52,1.09.77,1.64.06.12.1.15.22.07,1.61-1,3.29-1.88,5.01-2.68.06-.03.12-.06.19-.08ZM11.9,18.45c.06-.04.08-.05.1-.07,1.08-.89,2.2-1.73,3.35-2.52.1-.07.09-.12.05-.22-.29-.62-.58-1.24-.87-1.87-.05-.1-.08-.22-.23-.23-.15,0-.2.11-.25.22-.36.78-.72,1.57-1.08,2.35-.35.76-.7,1.52-1.08,2.32Z" fill="#0664b2" stroke-width="0"/>
  <path d="M16.07,3.42c-.45.22-.9.44-1.35.65-.71.33-1.42.67-2.11,1.04-.5.27-.99.57-1.48.85-.3.17-.58.38-.89.53-.5.25-.94.57-1.41.86-.06.04-.14.08-.14.14,0,.08.11.08.17.1.47.17.84.48,1.16.84.38.43.61.96.66,1.55.04.48.05.97,0,1.45-.07.61-.31,1.17-.73,1.62-.81.88-1.85,1.27-3.01,1.4-.51.05-1.03.06-1.54.06-.63,0-1.21-.2-1.81-.34-.22-.05-.44-.1-.64-.19-.37-.17-.73-.37-1.07-.59-.19-.13-.37-.27-.55-.4-.1-.07-.11-.15-.03-.25.23-.29.49-.55.72-.83.21-.25.46-.45.66-.7.33-.39.75-.66,1.11-1,.45-.42.94-.78,1.42-1.15.22-.17.46-.32.69-.5.3-.24.61-.47.94-.67.29-.17.55-.37.86-.52.3-.14.57-.34.86-.51.27-.16.56-.3.83-.47.6-.37,1.23-.69,1.86-1,.49-.24.99-.46,1.49-.7.39-.19.77-.37,1.17-.51.42-.15.82-.35,1.25-.49.23-.08.45-.17.68-.26.08-.03.16-.06.26-.03ZM8.92,10.77c0-.24-.05-.48-.1-.72-.04-.16-.13-.31-.25-.42-.45-.4-.99-.63-1.57-.76-.11-.02-.2-.03-.3.05-.51.43-1.03.85-1.49,1.33-.56.58-1.11,1.18-1.58,1.84-.06.08-.08.17.05.23.35.15.71.29,1.09.33.51.05,1.02.1,1.53.06.5-.04,1.01-.03,1.48-.27.72-.37,1.14-.86,1.15-1.68Z" fill="#ff9d1b" stroke-width="0"/>
  <path d="M6.12,7.02c-.85.4-1.7.78-2.52,1.2-.07.04-.15.03-.22,0-1.2-.39-1.94-1.18-2.13-2.44-.12-.85-.08-1.68.27-2.47.45-1,1.26-1.59,2.29-1.88,2.13-.6,4.11-.24,5.93,1.01.07.05.12.09.05.19-.31.42-.61.85-.91,1.28-.08.12-.14.03-.2-.01-.38-.27-.78-.5-1.22-.67-1.05-.42-2.11-.45-3.17-.08-.51.18-.96.5-1.13,1.03-.37,1.12-.05,1.88.96,2.31.59.25,1.22.35,1.84.48.05,0,.1,0,.16.06Z" fill="#0664b2" stroke-width="0"/>
  <path d="M13.07,22.81c.09,0,.15-.15.29-.2.57-.19,1.09-.51,1.66-.71.64-.24,1.19-.63,1.78-.95.46-.24.84-.59,1.26-.9.43-.32.86-.64,1.29-.97.27-.2.51-.45.76-.68.33-.28.66-.56.93-.9.31-.39.66-.75.95-1.15.28-.38.58-.75.82-1.18.03.11-.05.35-.13.52-.34.71-.77,1.38-1.22,2.02-.36.51-.77.98-1.21,1.43-.14.15-.28.3-.44.44-.1.08-.09.16-.04.25.25.44.44.9.65,1.35.21.44.4.88.64,1.31.03.05.02.11.04.17.05.13-.01.16-.13.16-.31,0-.61,0-.92,0-.5,0-.99,0-1.49,0-.14,0-.2-.06-.24-.18-.17-.45-.35-.9-.53-1.34-.06-.14-.17-.09-.25-.03-.32.21-.66.36-1.01.52-.59.27-1.2.51-1.83.68-.3.08-.6.17-.9.23-.26.06-.53.07-.73.1Z" fill="#ff9d1b" stroke-width="0"/>
  <path d="M22.72,11.75s-.02-.01-.02-.02c0,0,.02-.01.03-.02.02,0,.03,0,.03.02,0,0-.02,0-.03.01Z" fill="#022c55" stroke-width="0"/>
</svg>