<?xml version="1.0" encoding="UTF-8"?><svg id="Layer_1" xmlns="http://www.w3.org/2000/svg" viewBox="0 0 1024 1024"><path d="M862.26,503.6c-4.98,6.03-11.98,8.77-18.23,12.57-83.79,50.88-162.12,109.09-235.16,174.46-56.58,50.63-109.31,104.96-156.08,164.8-8.2,10.5-16.41,14.29-29.23,13.58-18.82-1.05-37.74-.42-56.62-.24-4.52.04-5.42-.52-3.29-5.05,27.5-58.55,54.83-117.18,82.16-175.81,23.57-50.58,47.06-101.19,70.63-151.77,7.34-15.74,14.76-31.43,22.28-47.08,8.77-18.24,22.86-29.05,43.44-30.56,22.42-1.64,40.13,6.91,50.97,26.46,9.52,17.17,17.19,35.37,25.62,53.15,8.52,17.97,17.09,35.92,25.34,54.01,1.87,4.11,3.39,4.8,7.31,2.38,53.09-32.8,108.15-61.93,164.75-88.17,2.02-.94,4.07-1.83,6.1-2.74ZM508.59,724.38c1.97-1.28,2.73-1.67,3.37-2.2,35.45-29.37,72.25-56.96,110.28-82.91,3.3-2.25,3.09-4,1.63-7.12-9.6-20.44-19.03-40.96-28.48-61.47-1.58-3.43-2.66-7.26-7.44-7.41-5.07-.17-6.58,3.72-8.26,7.35-11.89,25.78-23.75,51.57-35.66,77.34-11.56,25-23.17,49.97-35.44,76.42Z" style="fill:#0664b2; stroke-width:0px;"/><path d="M646.03,229.65c-14.97,7.34-29.64,14.37-44.36,21.27-23.35,10.94-46.63,22.02-69.28,34.31-16.47,8.94-32.55,18.63-48.8,27.97-9.78,5.62-19.17,12.49-29.2,17.47-16.36,8.13-30.93,18.81-46.28,28.36-1.99,1.24-4.72,2.58-4.68,4.48.04,2.48,3.52,2.61,5.46,3.33,15.31,5.63,27.75,15.69,38.12,27.52,12.54,14.3,20.16,31.55,21.79,50.91,1.35,15.92,1.67,31.95-.26,47.74-2.45,20.06-10.29,38.46-24.08,53.38-26.64,28.82-60.83,41.92-99.21,45.98-16.93,1.79-33.86,1.87-50.84,2.13-20.67.32-39.88-6.71-59.62-11.1-7.11-1.58-14.4-3.27-20.93-6.34-12.13-5.7-23.95-12.15-35.15-19.57-6.23-4.12-12.15-8.73-18.24-13.08-3.37-2.41-3.62-4.85-.98-8.17,7.52-9.45,16.02-18.03,23.78-27.24,6.85-8.14,15.08-14.96,21.85-23.01,10.72-12.75,24.65-21.65,36.61-32.85,14.65-13.71,30.88-25.54,46.62-37.9,7.27-5.71,15.28-10.66,22.64-16.35,10-7.74,20.01-15.45,30.86-21.93,9.43-5.62,18.17-12.26,28.19-17.06,9.88-4.73,18.9-11.22,28.41-16.74,9.01-5.24,18.37-9.9,27.21-15.39,19.7-12.23,40.37-22.67,61.13-32.87,16.15-7.94,32.74-15.07,48.91-22.91,12.69-6.15,25.41-12.21,38.64-16.77,13.91-4.8,27.06-11.38,41.02-15.96,7.54-2.47,14.88-5.55,22.27-8.46,2.58-1.02,5.12-1.82,8.41-1.15ZM410.54,471.44c.08-8.02-1.56-15.87-3.38-23.55-1.23-5.17-4.36-10.14-8.35-13.72-14.81-13.26-32.54-20.71-51.8-24.87-3.57-.77-6.55-1.14-9.87,1.65-16.79,14.12-33.85,28.05-49.1,43.73-18.56,19.08-36.45,38.92-52.04,60.64-2.01,2.8-2.74,5.71,1.57,7.5,11.58,4.83,23.36,9.47,35.83,10.79,16.75,1.77,33.57,3.22,50.51,1.93,16.55-1.26,33.14-.9,48.65-8.88,23.66-12.18,37.62-28.16,37.98-55.22Z" style="fill:#ff9d1b; stroke-width:0px;"/><path d="M318.54,348.15c-28.12,13.09-55.86,25.81-83.08,39.63-2.42,1.23-4.78.99-7.29.17-39.43-12.79-63.88-38.77-69.93-80.38-4.05-27.81-2.79-55.3,8.95-81.4,14.87-33.05,41.6-52.48,75.48-61.98,70.04-19.64,135.15-7.95,195.06,33.16,2.39,1.64,4.04,2.81,1.5,6.24-10.27,13.83-20.21,27.9-30.08,42.02-2.74,3.92-4.66,1.02-6.59-.36-12.48-8.96-25.8-16.39-40.04-22.14-34.42-13.91-69.32-14.86-104.25-2.58-16.87,5.93-31.47,16.45-37.27,33.77-12.29,36.71-1.54,61.92,31.72,76.02,19.37,8.21,40.2,11.51,60.7,15.75,1.53.32,3.37-.15,5.11,2.09Z" style="fill:#0664b2; stroke-width:0px;"/><path d="M547.29,867.7c2.89.11,4.95-4.9,9.56-6.45,18.77-6.32,36.03-16.64,54.52-23.46,21.11-7.8,39.02-20.78,58.52-31.13,15.05-7.99,27.78-19.32,41.36-29.46,14.15-10.56,28.27-21.2,42.39-31.82,8.91-6.7,16.62-14.95,25.12-22.23,10.76-9.22,21.87-18.43,30.46-29.45,10.06-12.92,21.6-24.52,31.31-37.68,9.26-12.57,19.1-24.71,27.15-38.75.92,3.53-1.68,11.48-4.37,17.15-11.15,23.53-25.26,45.28-40.08,66.56-11.77,16.92-25.39,32.38-39.71,47.2-4.72,4.89-9.37,9.9-14.49,14.34-3.14,2.72-2.91,5.12-1.19,8.18,8.09,14.4,14.39,29.68,21.5,44.56,6.88,14.4,13.12,29.12,20.94,43.07.88,1.57.65,3.72,1.29,5.47,1.54,4.2-.43,5.15-4.16,5.12-10.06-.1-20.13-.07-30.19-.08-16.36-.03-32.71-.21-49.07.02-4.71.07-6.44-1.99-7.97-6.08-5.56-14.83-11.47-29.53-17.42-44.21-1.93-4.76-5.75-2.81-8.32-1.11-10.43,6.93-21.86,11.79-33.14,17-19.51,9.01-39.47,16.74-60.28,22.29-9.91,2.64-19.73,5.51-29.77,7.68-8.63,1.87-17.35,2.43-23.93,3.26Z" style="fill:#ff9d1b; stroke-width:0px;"/><path d="M864.86,503.79c-.28-.23-.55-.45-.81-.67.32-.2.62-.46.96-.58.67-.23,1.06.09.84.76-.08.24-.64.33-.99.49Z" style="fill:#022c55; stroke-width:0px;"/></svg>