<?xml version="1.0" encoding="utf-8"?>
<!-- Generator: Adobe Illustrator 28.1.0, SVG Export Plug-In . SVG Version: 6.00 Build 0)  -->
<svg version="1.1" id="OBJECTS" xmlns="http://www.w3.org/2000/svg" xmlns:xlink="http://www.w3.org/1999/xlink" x="0px" y="0px"
	 viewBox="0 0 70 70" style="enable-background:new 0 0 70 70;" xml:space="preserve">
<style type="text/css">
	.st0{fill:url(#SVGID_1_);}
	.st1{fill-rule:evenodd;clip-rule:evenodd;fill:#FFFFFF;}
</style>
<linearGradient id="SVGID_1_" gradientUnits="userSpaceOnUse" x1="1741.84" y1="-1075.6451" x2="1741.84" y2="-1367.3351" gradientTransform="matrix(0.24 0 0 -0.24 -383.0388 -258.1548)">
	<stop  offset="0" style="stop-color:#4AC14B"/>
	<stop  offset="1" style="stop-color:#06853A"/>
</linearGradient>
<path class="st0" d="M11.6,0h46.9C64.8,0,70,5.2,70,11.6v46.9C70,64.8,64.8,70,58.4,70H11.6C5.2,70,0,64.8,0,58.4V11.6
	C0,5.2,5.2,0,11.6,0z"/>
<path class="st1" d="M58.9,34.4c0,12.8-10.5,23.3-23.4,23.3c-4.1,0-8-1-11.3-2.9l-13,4.1l4.2-12.5c-2.1-3.5-3.4-7.6-3.4-12
	c0-12.8,10.5-23.3,23.4-23.3S58.9,21.5,58.9,34.4L58.9,34.4L58.9,34.4z M35.4,14.8c-10.9,0-19.7,8.8-19.7,19.6
	c0,4.3,1.4,8.2,3.8,11.5L17,53.1l7.6-2.4c3.1,2,6.8,3.2,10.8,3.2c10.9,0,19.7-8.8,19.7-19.5S46.3,14.8,35.4,14.8L35.4,14.8
	L35.4,14.8z M47.3,39.7c-0.1-0.2-0.5-0.4-1.1-0.7c-0.6-0.3-3.4-1.7-3.9-1.9c-0.5-0.2-0.9-0.3-1.3,0.3c-0.4,0.6-1.5,1.9-1.8,2.2
	c-0.3,0.4-0.7,0.4-1.2,0.1c-0.6-0.3-2.4-0.9-4.6-2.8c-1.7-1.5-2.9-3.4-3.2-3.9c-0.3-0.6,0-0.9,0.3-1.2c0.3-0.3,0.6-0.7,0.9-1
	c0.3-0.3,0.4-0.6,0.6-1c0.2-0.4,0.1-0.7,0-1c-0.1-0.3-1.3-3.1-1.8-4.2c-0.5-1.1-1-1.1-1.3-1.1s-1,0.1-1,0.1s-1.2,0.1-1.7,0.7
	c-0.5,0.6-2,1.9-2,4.8s2.1,5.5,2.3,5.9c0.3,0.4,4,6.3,9.8,8.6c5.8,2.3,5.8,1.5,6.9,1.4c1.1-0.1,3.4-1.4,3.9-2.7
	C47.4,41.1,47.4,40,47.3,39.7L47.3,39.7L47.3,39.7z"/>
</svg>
